<svg width="348" height="159" viewBox="0 0 348 159" fill="none" xmlns="http://www.w3.org/2000/svg">
<g filter="url(#filter0_d_2_13)">
<path d="M22.6059 109.2C21.8239 109.122 21.0029 108.614 20.1427 107.675C19.2826 106.815 18.5788 105.838 18.0315 104.743C17.4841 103.648 17.2104 102.866 17.2104 102.397C17.2104 100.208 19.4781 97.3926 24.0134 93.952C28.627 90.5114 35.1172 87.149 43.4841 83.8648C48.8014 81.8317 53.4932 79.9941 57.5593 78.352C61.6255 76.7099 65.2225 75.2633 68.3503 74.0121C68.5849 73.3084 68.7804 72.6437 68.9368 72.0181C69.0932 71.3144 69.1714 70.6497 69.1714 70.0241C69.1714 67.3655 68.1548 64.9805 66.1217 62.8693C64.1669 60.6798 61.5473 58.7249 58.2631 57.0046C54.9789 55.2843 51.2646 53.7595 47.1202 52.4301C43.054 51.0226 38.9097 49.8106 34.6871 48.794C30.4646 47.7775 26.4375 46.9173 22.6059 46.2136C22.4495 46.2918 22.2149 46.4482 21.9021 46.6828C21.5894 46.8392 21.2375 46.9955 20.8465 47.1519C20.4555 50.6707 20.1427 54.2286 19.9082 57.8256C19.7518 61.3444 19.6736 64.7459 19.6736 68.0302C19.6736 70.4542 19.7127 72.8001 19.7909 75.0678C19.9473 77.3354 20.1036 79.4858 20.26 81.5189C20.651 80.4242 21.0029 79.2903 21.3157 78.1174C21.6285 76.8663 21.8239 76.2407 21.9021 76.2407C22.0585 76.2407 22.1367 76.8272 22.1367 78.0001C22.1367 79.3294 22.0976 81.2843 22.0194 83.8648C21.9412 86.367 21.9021 88.5174 21.9021 90.3159C21.9021 91.8016 21.9412 92.6227 22.0194 92.7791C22.0194 92.8573 21.9021 92.8964 21.6676 92.8964C21.1984 92.8964 20.3382 92.74 19.0871 92.4272C17.9142 92.1144 16.8194 91.6843 15.8029 91.1369C14.7863 90.5896 14.1999 89.9249 14.0435 89.143C13.5743 86.4061 13.3397 82.8873 13.3397 78.5866C13.3397 74.2858 13.5352 69.555 13.9262 64.3941C14.3954 59.155 14.9036 53.9159 15.451 48.6768C14.4345 48.9113 13.5352 49.0286 12.7533 49.0286C12.6751 49.0286 12.0886 48.9113 10.9939 48.6768C9.89912 48.364 8.84348 47.9339 7.82693 47.3865C6.81039 46.8392 6.30212 46.1745 6.30212 45.3925C6.30212 44.9234 7.24047 44.2587 9.11716 43.3986C10.9939 42.4602 13.3788 41.7955 16.2721 41.4046C16.8194 37.3384 17.3668 33.5459 17.9142 30.0271C18.4615 26.5083 18.9698 23.4587 19.439 20.8782C18.7352 21.8166 18.1488 22.2857 17.6796 22.2857C17.5232 22.2857 17.445 22.1294 17.445 21.8166C17.445 21.5038 17.4841 21.2692 17.5623 21.1128C17.7969 20.4872 18.1878 19.5489 18.7352 18.2978C19.3608 17.0466 19.9863 15.7955 20.6119 14.5444C21.3157 13.2151 22.0194 12.1203 22.7232 11.2602C23.427 10.3218 24.0134 9.85265 24.4826 9.85265C25.6555 9.85265 26.7894 10.3609 27.8841 11.3775C29.057 12.3158 29.6435 13.176 29.6435 13.9579V14.3098C27.6886 17.594 26.0465 21.582 24.7172 26.2737C23.4661 30.8873 22.4495 35.7745 21.6676 40.9354C22.0585 40.9354 22.4495 40.9745 22.8405 41.0527C23.3097 41.0527 23.7788 41.0918 24.248 41.17H25.7728C26.3984 41.17 27.1021 41.2091 27.8841 41.2873C28.6661 41.2873 29.448 41.3264 30.23 41.4046C32.9668 40.6226 35.8601 39.6843 38.9097 38.5895C42.0375 37.4948 44.9307 36.2046 47.5894 34.7188C50.3262 33.2331 52.5548 31.591 54.2751 29.7925C55.9954 27.994 56.8556 26.0391 56.8556 23.9279C56.8556 22.6767 56.0345 21.3474 54.3924 19.9399C52.7503 18.5324 50.639 17.1248 48.0586 15.7173C45.4781 14.3098 42.6631 13.0196 39.6134 11.8466C36.642 10.5955 33.7488 9.53986 30.9337 8.67971C28.1969 7.74137 25.8901 7.0767 24.0134 6.68573C18.5397 5.59099 13.9653 5.04362 10.2901 5.04362C9.50814 5.04362 8.80438 5.08272 8.17881 5.16091C7.63145 5.16091 7.12317 5.20001 6.654 5.2782C6.10663 5.04362 5.83295 4.76993 5.83295 4.45715C5.83295 3.83159 6.6931 3.16692 8.4134 2.46316C10.1337 1.7594 12.3232 1.17294 14.9818 0.703765C17.6405 0.234588 20.2991 0 22.9578 0C24.0525 0 25.1082 0.0390996 26.1247 0.117299C27.1412 0.195493 28.0796 0.351883 28.9397 0.586466C31.5984 1.21203 34.4916 2.07218 37.6195 3.16692C40.7473 4.26166 43.8751 5.55189 47.0029 7.0376C50.1307 8.52332 52.9849 10.1263 55.5653 11.8466C58.224 13.4887 60.3353 15.2481 61.8992 17.1248C63.4631 18.9233 64.245 20.7218 64.245 22.5203C64.245 24.6316 63.0721 26.5865 60.7262 28.385C57.5202 30.8091 54.0405 33.3504 50.2871 36.0091C46.5338 38.5895 42.233 40.7399 37.3849 42.4602C40.3563 43.0858 43.6014 43.985 47.1202 45.158C50.639 46.2527 54.1187 47.6211 57.5593 49.2632C61.0781 50.9053 64.2451 52.782 67.0601 54.8933C69.9533 56.9264 72.2601 59.155 73.9804 61.579C75.7007 64.0031 76.5609 66.5835 76.5609 69.3204C76.5609 69.946 76.5218 70.376 76.4436 70.6106C79.8842 69.2031 82.3082 68.1866 83.7158 67.561C85.1233 66.9354 85.9052 66.6226 86.0616 66.6226C86.218 66.6226 86.2962 66.6617 86.2962 66.7399C86.2962 67.6783 85.3188 68.773 83.3639 70.0241C81.409 71.2753 78.8676 72.6437 75.7398 74.1294C74.6451 77.4918 72.5729 80.8151 69.5233 84.0994C66.5518 87.3836 62.9939 90.4723 58.8496 93.3655C54.7834 96.337 50.5217 98.9565 46.0646 101.224C41.6074 103.57 37.3067 105.447 33.1623 106.854C29.0961 108.262 25.5773 109.044 22.6059 109.2ZM21.7848 102.514C25.7728 101.498 29.2916 100.481 32.3413 99.4648C35.3909 98.4482 38.245 97.3535 40.9037 96.1806C43.5623 95.0076 46.1819 93.6001 48.7623 91.958C51.3428 90.3159 54.1578 88.4001 57.2075 86.2106C59.0841 84.8813 60.6872 83.5911 62.0165 82.34C63.424 81.0106 64.636 79.7204 65.6526 78.4693C62.0556 79.955 58.3413 81.4407 54.5097 82.9264C50.7563 84.3339 47.2766 85.6633 44.0706 86.9144C42.0375 87.6963 39.7307 88.8302 37.1503 90.3159C34.648 91.8016 32.224 93.3264 29.8781 94.8904C27.5322 96.5325 25.5773 98.0182 24.0134 99.3475C22.5277 100.755 21.7848 101.811 21.7848 102.514Z" fill="black"/>
<path d="M92.0463 54.5414C91.5772 54.5414 91.0689 54.4632 90.5215 54.3068C90.0523 54.0722 89.5832 53.8377 89.114 53.6031C88.8012 53.3685 88.6448 53.0557 88.6448 52.6647C88.6448 51.961 89.0749 51.1008 89.9351 50.0843C90.7952 48.9895 91.8899 48.0512 93.2193 47.2692C94.5486 46.4873 95.8388 46.0963 97.09 46.0963C97.7937 46.0963 98.1456 46.2918 98.1456 46.6828C98.1456 46.9955 97.7937 47.3865 97.09 47.8557C96.2298 48.4813 95.6042 49.3414 95.2133 50.4362C94.8223 51.5309 94.4313 52.5083 94.0403 53.3685C93.6493 54.1504 92.9847 54.5414 92.0463 54.5414ZM85.7125 89.964C84.2268 89.964 83.2102 89.4948 82.6629 88.5565C82.1155 87.6181 81.8418 86.1715 81.8418 84.2167C81.8418 83.2001 81.8809 82.1054 81.9591 80.9324C82.0373 79.7595 82.1937 78.4302 82.4283 76.9445C83.132 71.6272 83.914 67.4046 84.7741 64.2768C85.6343 61.0708 86.729 59.4677 88.0584 59.4677C89.1531 59.4677 90.1305 60.0933 90.9907 61.3444C91.8508 62.5956 92.4373 63.4948 92.7501 64.0422C92.2027 65.0587 91.4599 66.7008 90.5215 68.9685C89.6614 71.2362 88.8794 73.6211 88.1757 76.1234C87.4719 78.6257 87.12 80.8151 87.12 82.6918C87.12 84.5685 87.5501 85.5069 88.4102 85.5069C89.114 85.5069 89.896 85.1159 90.7561 84.3339C91.6945 83.552 92.5546 82.6918 93.3366 81.7535C94.1967 80.8151 94.7441 80.1505 94.9787 79.7595C97.6373 75.7715 99.3185 72.7219 100.022 70.6106C100.804 68.4993 101.547 67.4437 102.251 67.4437C102.564 67.4437 102.72 67.6783 102.72 68.1475C102.72 68.4602 102.642 68.8121 102.485 69.2031C102.407 69.5159 102.29 69.9459 102.134 70.4933C101.664 71.7444 100.922 73.4648 99.905 75.6542C98.8884 77.7655 97.6373 79.9159 96.1516 82.1054C94.7441 84.2948 93.1411 86.1715 91.3426 87.7355C89.6223 89.2212 87.7456 89.964 85.7125 89.964Z" fill="black"/>
<path d="M109.577 97.8227C108.17 97.8227 107.036 96.8843 106.176 95.0076C105.394 93.1309 104.768 90.8242 104.299 88.0873C103.908 85.2723 103.634 82.5354 103.478 79.8768C102.461 79.564 101.445 79.2903 100.428 79.0557C99.4899 78.743 98.5906 78.5084 97.7305 78.352C97.1049 78.2738 96.7921 77.8828 96.7921 77.179C96.7921 76.3189 97.2613 75.3805 98.1997 74.364C99.2162 73.3475 100.311 72.8392 101.484 72.8392L102.305 72.9565L103.243 73.3084V73.1911C103.243 67.0136 103.673 61.3053 104.533 56.0662C105.394 50.7489 106.293 46.3309 107.231 42.8121C108.248 39.2933 108.952 37.182 109.343 36.4782C109.733 35.8527 110.085 34.9143 110.398 33.6632C110.789 32.3339 111.493 31.6692 112.509 31.6692C114.073 31.6692 115.403 32.2166 116.497 33.3113C117.592 34.4061 118.14 35.1489 118.14 35.5399C117.201 37.7294 116.146 39.997 114.973 42.3429C113.8 44.6888 112.666 47.3474 111.571 50.3189C110.476 53.2121 109.538 56.6527 108.756 60.6407C107.974 64.6287 107.505 69.3595 107.349 74.8332L108.873 75.5369C111.767 73.5038 114.738 71.0798 117.788 68.2647C120.837 65.4497 123.731 62.5565 126.467 59.585C129.282 56.6136 131.706 53.9159 133.74 51.4918C133.896 51.3354 134.052 51.2572 134.209 51.2572C134.443 51.2572 134.561 51.4136 134.561 51.7264C134.561 51.8828 134.522 52.0392 134.443 52.1956C133.036 54.776 131.081 57.5911 128.579 60.6407C126.155 63.6903 123.535 66.6617 120.72 69.555C117.905 72.4482 115.168 74.9896 112.509 77.179C117.592 79.6031 122.558 82.4963 127.406 85.8587C132.332 89.2212 136.985 92.7009 141.364 96.2979C141.911 96.767 142.185 97.1189 142.185 97.3535C142.185 97.6663 142.028 97.8227 141.715 97.8227C141.481 97.8227 141.285 97.7445 141.129 97.5881C139.331 96.4934 136.711 94.9685 133.27 93.0136C129.83 91.137 126.155 89.2212 122.245 87.2663C120.915 86.6407 118.843 85.7415 116.028 84.5685C113.291 83.3956 110.398 82.2618 107.349 81.167C107.427 84.5294 107.7 87.5791 108.17 90.3159C108.717 93.0527 109.264 95.4768 109.812 97.5881C109.812 97.7445 109.734 97.8227 109.577 97.8227Z" fill="black"/>
<path d="M140.444 101.693C139.818 101.693 138.801 101.107 137.394 99.934C135.986 98.8392 135.087 97.549 134.696 96.0633C134.149 94.1084 133.797 91.5279 133.641 88.3219C133.484 85.1159 133.406 81.6362 133.406 77.8828C133.406 73.8948 133.445 69.8287 133.523 65.6843C133.601 61.4617 133.641 57.5911 133.641 54.0723C133.641 52.3519 133.641 50.788 133.641 49.3805C133.641 47.8948 133.562 46.6046 133.406 45.5098C133.25 45.3534 132.78 45.2361 131.998 45.158C131.295 45.0016 130.591 44.8843 129.887 44.8061C129.262 44.6497 128.949 44.5715 128.949 44.5715C128.949 44.4151 129.535 44.0632 130.708 43.5158C131.959 42.8903 133.719 42.5775 135.986 42.5775C138.254 42.5775 139.74 43.0076 140.444 43.8677C141.147 44.7279 141.499 45.4707 141.499 46.0963C141.499 46.3309 141.499 46.5655 141.499 46.8001C141.499 47.0346 141.46 47.2692 141.382 47.5038C140.756 50.5535 140.287 53.3294 139.974 55.8316C139.662 58.2557 139.427 60.758 139.271 63.3384C139.114 65.8407 138.997 68.773 138.919 72.1354C138.997 71.9008 139.349 70.6888 139.974 68.4993C140.678 66.2317 141.812 62.7129 143.376 57.9429C144.627 53.955 145.644 51.3745 146.426 50.2016C147.208 48.9504 147.872 48.2858 148.42 48.2076C148.576 48.2858 149.006 48.4422 149.71 48.6768C150.414 48.9113 151.117 49.3023 151.821 49.8497C152.525 50.3189 152.877 50.9444 152.877 51.7264V51.961C152.329 54.8542 151.821 58.1384 151.352 61.8136C150.961 65.4888 150.765 69.0467 150.765 72.4873C150.765 74.6768 150.844 76.7099 151 78.5866C151.235 80.4633 151.626 81.9881 152.173 83.161C152.173 82.8482 152.408 81.8317 152.877 80.1114C153.424 78.3911 154.05 76.4362 154.753 74.2467C155.457 71.979 156.122 69.8287 156.747 67.7956C157.373 65.7625 157.842 64.2377 158.155 63.2211C158.78 61.3444 159.328 60.0933 159.797 59.4677C160.344 58.8422 161.087 58.5294 162.026 58.5294C163.355 58.5294 164.293 59.3505 164.841 60.9926C165.466 62.5565 165.857 64.5114 166.014 66.8572C166.17 69.2031 166.287 71.549 166.365 73.8948C166.444 76.2407 166.6 78.2347 166.835 79.8768C167.147 81.4407 167.734 82.2227 168.594 82.2227C169.611 82.2227 170.666 81.4798 171.761 79.9941C172.856 78.4302 173.911 76.6317 174.928 74.5986C176.023 72.5655 177 70.8061 177.86 69.3204C178.72 67.7565 179.385 66.9745 179.854 66.9745C180.089 66.9745 180.206 67.17 180.206 67.561C180.206 67.8738 180.089 68.382 179.854 69.0858C178.759 71.7444 177.587 74.4031 176.335 77.0618C175.084 79.7204 173.794 81.949 172.465 83.7475C171.135 85.546 169.728 86.4452 168.242 86.4452C166.365 86.4452 164.88 85.8978 163.785 84.8031C163.003 84.0993 162.377 82.8091 161.908 80.9324C161.439 78.9775 161.048 76.9445 160.735 74.8332C160.423 72.7219 160.11 70.9234 159.797 69.4377C159.562 67.8738 159.289 67.0918 158.976 67.0918C158.741 67.0918 158.389 67.7956 157.92 69.2031C157.529 70.5324 157.099 72.2136 156.63 74.2467C156.161 76.2798 155.692 78.352 155.223 80.4633C154.832 82.4963 154.48 84.2948 154.167 85.8587C153.932 87.4227 153.815 88.4001 153.815 88.7911C153.815 89.7294 153.385 90.2768 152.525 90.4332C151.743 90.5896 150.726 90.6678 149.475 90.6678C148.928 90.6678 148.38 89.8076 147.833 88.0873C147.286 86.2888 146.777 84.0212 146.308 81.2843C145.917 78.4693 145.605 75.4978 145.37 72.37C145.135 69.2422 145.018 66.349 145.018 63.6903C145.018 62.8302 145.018 62.0482 145.018 61.3444C145.018 60.5625 145.057 59.8587 145.135 59.2332C143.884 62.8302 142.594 67.2091 141.265 72.37C139.935 77.4527 139.271 82.9655 139.271 88.9084C139.271 91.3324 139.388 93.6001 139.623 95.7114C139.857 97.8227 140.248 99.4648 140.795 100.638C140.874 100.794 140.913 100.99 140.913 101.224C140.913 101.537 140.756 101.693 140.444 101.693Z" fill="black"/>
<path d="M188.428 89.4949C185.613 89.4949 183.54 88.5956 182.211 86.7971C180.882 84.9204 180.217 82.6527 180.217 79.9941C180.217 77.179 180.882 73.7384 182.211 69.6723C183.54 65.6061 184.948 61.7745 186.434 58.1775C185.104 59.0377 183.736 59.8196 182.328 60.5234C180.921 61.2271 179.67 61.579 178.575 61.579C177.793 61.579 177.207 61.3835 176.816 60.9926C176.503 60.6016 176.346 60.1715 176.346 59.7023C176.346 59.3114 176.464 58.7249 176.698 57.9429C176.933 57.161 177.324 56.4181 177.871 55.7144C178.497 55.0106 179.24 54.6587 180.1 54.6587C180.413 54.6587 180.569 54.776 180.569 55.0106C180.569 55.0888 180.53 55.167 180.452 55.2452C180.452 55.2452 180.452 55.2843 180.452 55.3625C180.373 55.5189 180.334 55.6753 180.334 55.8316C180.334 56.1444 180.53 56.3008 180.921 56.3008C181.155 56.3008 181.429 56.2617 181.742 56.1835C182.133 56.1053 182.524 55.9489 182.915 55.7144C183.697 55.3234 184.596 54.8542 185.613 54.3068C186.629 53.6813 187.763 53.0557 189.014 52.4301L190.773 48.9113C191.243 48.0512 191.79 47.4647 192.416 47.1519C193.041 46.761 193.628 46.5655 194.175 46.5655C195.035 46.5655 195.778 46.7219 196.404 47.0346C197.107 47.2692 197.733 47.582 198.28 47.973C199.14 47.582 200.04 47.2301 200.978 46.9174C201.995 46.5264 202.972 46.2527 203.91 46.0963C206.882 45.0016 209.97 44.1414 213.176 43.5158C216.383 42.8121 219.549 42.4602 222.677 42.4602C224.398 42.4602 226.157 42.6948 227.955 43.164C229.754 43.6331 230.653 44.376 230.653 45.3925C230.653 45.7053 230.34 45.8617 229.715 45.8617C228.464 45.8617 227.017 45.7053 225.375 45.3925C223.811 45.0798 222.247 44.9234 220.683 44.9234C218.728 44.9234 216.852 45.0407 215.053 45.2752C213.255 45.4316 211.573 45.7053 210.01 46.0963C211.261 46.6437 212.277 47.582 213.059 48.9113C213.919 50.2407 214.349 51.9219 214.349 53.955C214.349 56.1444 213.802 58.764 212.707 61.8136C211.691 64.8632 210.283 67.9911 208.485 71.1971C206.764 74.4031 204.77 77.4136 202.503 80.2287C200.235 82.9655 197.889 85.1941 195.465 86.9144C193.041 88.6347 190.695 89.4949 188.428 89.4949ZM189.718 87.0317C191.36 87.0317 193.041 86.2888 194.761 84.8031C196.56 83.3174 198.319 81.4407 200.04 79.173C201.76 76.9054 203.285 74.5595 204.614 72.1354C205.24 71.0407 205.943 69.555 206.725 67.6783C207.586 65.8016 208.289 63.8076 208.837 61.6963C209.462 59.585 209.775 57.6692 209.775 55.9489C209.775 54.385 209.423 53.0948 208.719 52.0783C208.094 50.9835 206.882 50.4362 205.083 50.4362C204.223 50.4362 203.128 50.6707 201.799 51.1399C200.47 51.6091 199.062 52.1565 197.576 52.782C197.264 53.0948 196.951 53.4467 196.638 53.8377C196.404 54.1504 196.208 54.5023 196.052 54.8933C194.566 57.6301 193.08 60.6798 191.594 64.0422C190.109 67.3264 188.858 70.5324 187.841 73.6602C186.903 76.7881 186.434 79.5249 186.434 81.8708C186.434 85.3114 187.528 87.0317 189.718 87.0317Z" fill="black"/>
<path d="M240.664 104.86C239.179 104.86 237.928 104.508 236.911 103.805C235.894 103.179 235.386 102.163 235.386 100.755C235.386 99.2693 235.973 97.5099 237.146 95.4768C238.319 93.4437 239.648 91.4888 241.134 89.6121C242.619 87.7354 243.792 86.2888 244.652 85.2723C247.624 81.8317 250.009 78.5084 251.807 75.3023C253.684 72.0963 254.622 69.0467 254.622 66.1535C254.622 63.4166 253.645 60.9144 251.69 58.6467C249.813 56.3008 246.685 54.1895 242.306 52.3128C241.368 51.8437 240.352 51.4136 239.257 51.0226C238.24 50.6316 237.185 50.2407 236.09 49.8497C234.291 55.3234 232.532 61.188 230.812 67.4437C229.17 73.6993 227.684 80.0332 226.355 86.4452C225.025 92.8573 223.97 99.1129 223.188 105.212C222.484 111.39 222.132 117.098 222.132 122.337C222.132 125.387 222.249 128.202 222.484 130.782C222.797 133.441 223.266 135.826 223.891 137.937C224.752 140.908 225.768 142.902 226.941 143.919C228.192 144.936 229.365 145.444 230.46 145.444C231.242 145.444 231.946 145.287 232.571 144.975C233.275 144.74 233.822 144.505 234.213 144.271C234.839 143.958 235.386 143.802 235.855 143.802C236.325 143.802 236.559 143.997 236.559 144.388C236.559 144.545 236.442 144.818 236.207 145.209C235.894 145.6 235.112 146.265 233.861 147.203C232.61 148.22 231.085 148.728 229.287 148.728C228.74 148.728 228.114 148.65 227.41 148.493C226.785 148.337 226.12 148.063 225.416 147.672C223.227 146.421 221.506 144.388 220.255 141.573C219.082 138.836 218.222 135.552 217.675 131.72C217.206 127.967 216.971 123.979 216.971 119.757C216.971 114.517 217.206 109.278 217.675 104.039C218.222 98.8783 218.77 94.4212 219.317 90.6678C219.786 87.0708 220.529 83.0046 221.546 78.4693C222.562 73.8557 223.813 69.0858 225.299 64.1595C226.785 59.155 228.505 54.2677 230.46 49.4978C228.896 48.3249 227.176 47.4647 225.299 46.9174C223.5 46.37 221.78 46.0181 220.138 45.8617C218.574 45.7053 217.401 45.6271 216.619 45.6271C216.15 45.5489 215.994 45.2752 216.15 44.8061C216.385 44.2587 216.776 43.7504 217.323 43.2813C217.87 42.7339 218.418 42.4602 218.965 42.4602C223.5 42.4602 228.075 43.0858 232.688 44.3369C233.158 43.3985 233.588 42.4993 233.979 41.6392C233.509 40.8572 233.158 40.0752 232.923 39.2933C232.767 38.5113 232.688 37.7685 232.688 37.0647C232.688 36.2828 232.806 35.6572 233.04 35.188C233.588 33.7023 234.096 32.5294 234.565 31.6692C235.112 30.7309 235.855 30.4181 236.794 30.7309C238.123 31.1218 239.296 31.8256 240.312 32.8421C241.407 33.8587 241.798 34.8752 241.485 35.8918C240.156 38.8632 238.866 42.1474 237.615 45.7444C241.916 47.3083 245.864 49.3414 249.461 51.8437C253.137 54.2677 256.186 57.0046 258.61 60.0542C260.409 62.3219 261.308 64.8632 261.308 67.6783C261.308 70.2587 260.565 72.9565 259.079 75.7715C257.672 78.5866 255.756 81.4798 253.332 84.4512C252.628 85.3114 251.69 86.4061 250.517 87.7355C249.344 89.0648 248.132 90.4723 246.881 91.958C245.708 93.3655 244.691 94.6949 243.831 95.946C243.049 97.2753 242.658 98.3309 242.658 99.1129C242.658 99.9731 243.167 100.442 244.183 100.52C244.496 100.52 244.809 100.52 245.122 100.52C245.512 100.599 245.903 100.599 246.294 100.52H246.529C247.311 100.52 247.702 100.833 247.702 101.459C247.702 102.084 247.311 102.671 246.529 103.218C244.574 104.313 242.619 104.86 240.664 104.86Z" fill="black"/>
<path d="M288.353 93.0136C287.024 93.0136 285.734 92.3881 284.483 91.1369C283.31 89.8076 282.723 88.1264 282.723 86.0933C282.723 82.2618 282.84 78.4693 283.075 74.7159C283.388 70.8843 283.701 67.4828 284.013 64.5114C284.404 61.4617 284.678 59.2332 284.835 57.8256C284.053 61.1099 283.075 64.3941 281.902 67.6783C280.729 70.9625 279.556 74.0512 278.383 76.9445C277.21 79.7595 276.194 82.1445 275.334 84.0994C274.474 85.9761 273.965 87.1881 273.809 87.7355C273.496 88.5956 272.831 89.0257 271.815 89.0257C271.033 89.0257 270.134 88.7911 269.117 88.3219C268.101 87.8527 267.201 87.3054 266.419 86.6798C265.716 85.976 265.325 85.3896 265.246 84.9204C265.168 84.5294 265.129 84.0994 265.129 83.6302C265.129 83.0828 265.129 82.5354 265.129 81.9881C265.129 79.7204 265.325 76.7099 265.716 72.9565C266.107 69.1249 266.732 64.2768 267.592 58.4121C268.062 55.2061 268.296 52.6256 268.296 50.6707C268.296 48.6377 268.062 47.0737 267.592 45.979C267.201 44.8843 266.693 44.0632 266.068 43.5158C264.816 43.5158 263.526 43.3985 262.197 43.164C260.868 42.8512 260.203 42.4993 260.203 42.1083C260.203 41.8737 260.828 41.561 262.08 41.17C263.409 40.779 264.973 40.4662 266.771 40.2316C268.57 39.9188 270.212 39.7625 271.698 39.7625C272.792 39.7625 273.653 39.8798 274.278 40.1143C274.982 40.3489 275.334 40.779 275.334 41.4046C275.334 43.594 275.138 46.2918 274.747 49.4978C274.356 52.6256 273.887 55.9489 273.34 59.4677C272.871 62.9865 272.441 66.4271 272.05 69.7896C271.659 73.152 271.463 76.1625 271.463 78.8212C271.463 79.7595 271.502 80.6587 271.58 81.5189C271.659 82.3008 271.776 83.0046 271.932 83.6302C272.558 83.4738 273.34 82.4572 274.278 80.5806C275.295 78.6257 276.35 76.1625 277.445 73.1911C278.618 70.2196 279.752 67.0527 280.847 63.6903C281.941 60.3279 282.919 57.1219 283.779 54.0723C284.639 51.0226 285.265 48.4422 285.656 46.3309C285.734 45.9399 286.047 45.7444 286.594 45.7444C287.454 45.7444 288.392 46.2136 289.409 47.1519C290.504 48.0121 291.286 48.9895 291.755 50.0843C291.52 51.0226 291.207 52.7038 290.816 55.1279C290.504 57.552 290.152 60.3279 289.761 63.4557C289.448 66.5053 289.174 69.5159 288.94 72.4873C288.783 75.3805 288.705 77.8437 288.705 79.8768C288.705 82.3009 288.901 83.8257 289.292 84.4512C289.683 85.0768 290.152 85.3896 290.699 85.3896C291.325 85.3896 292.029 84.8422 292.81 83.7475C293.671 82.6527 294.531 81.2843 295.391 79.6422C296.251 78.0001 297.111 76.3971 297.971 74.8332C298.831 73.1911 299.574 71.8226 300.2 70.7279C300.904 69.6332 301.451 69.0858 301.842 69.0858C302.155 69.0858 302.311 69.2813 302.311 69.6723C302.311 69.9069 302.194 70.3369 301.959 70.9625C301.647 71.7445 301.099 73.0347 300.317 74.8332C299.613 76.5535 298.753 78.4693 297.737 80.5806C296.72 82.6136 295.665 84.5685 294.57 86.4452C293.475 88.3219 292.38 89.8858 291.286 91.1369C290.191 92.3881 289.213 93.0136 288.353 93.0136Z" fill="black"/>
<path d="M293.74 89.143C293.27 89.143 293.036 88.9866 293.036 88.6738C293.036 88.361 293.27 87.9309 293.74 87.3836C295.695 85.8197 297.493 83.7866 299.135 81.2843C300.855 78.7039 302.341 76.0452 303.592 73.3084C304.922 70.5715 305.938 68.1475 306.642 66.0362C307.346 64.0031 308.049 61.8527 308.753 59.585C309.535 57.2392 310.239 55.0106 310.864 52.8993C311.49 50.788 311.998 49.1459 312.389 47.973C310.122 46.8783 308.167 45.3143 306.525 43.2813C304.882 41.17 304.061 38.8241 304.061 36.2437C304.061 34.0542 304.726 32.1384 306.055 30.4963C307.463 28.776 309.496 27.7985 312.155 27.5639C314.188 27.5639 315.595 28.2677 316.377 29.6752C317.159 31.0046 317.55 32.7249 317.55 34.8361C317.55 36.9474 317.276 39.0978 316.729 41.2873C316.182 43.4767 315.595 45.197 314.97 46.4482L323.884 48.3249C325.917 48.794 327.364 49.3414 328.224 49.967C329.084 50.5143 329.514 51.57 329.514 53.1339C329.514 53.9159 329.397 55.2843 329.162 57.2392C328.928 59.1159 328.654 61.2662 328.341 63.6903C328.107 66.1144 327.989 68.5775 327.989 71.0798C327.989 73.8948 328.224 76.358 328.693 78.4693C329.162 80.5805 330.061 81.6362 331.391 81.6362C332.329 81.6362 333.228 81.1279 334.089 80.1114C334.949 79.0948 335.692 78.0001 336.317 76.8272C337.021 75.6542 337.49 74.7941 337.725 74.2467C339.367 71.1971 340.383 69.2422 340.774 68.382C341.165 67.4437 341.713 66.9745 342.416 66.9745C342.651 66.9745 342.768 67.1309 342.768 67.4437C342.768 67.7565 342.651 68.1474 342.416 68.6166C341.4 71.1971 340.188 73.8948 338.78 76.7099C337.451 79.4467 335.887 81.7926 334.089 83.7475C332.29 85.7024 330.179 86.6798 327.755 86.6798C327.051 86.6798 326.347 86.5625 325.643 86.3279C324.94 86.0151 324.275 85.546 323.649 84.9204C322.398 83.7475 321.538 81.9881 321.069 79.6422C320.6 77.2963 320.365 74.6768 320.365 71.7835C320.365 67.952 320.639 64.0813 321.186 60.1715C321.734 56.1835 322.242 53.0948 322.711 50.9053C322.477 50.6707 321.734 50.358 320.483 49.967C319.231 49.576 317.98 49.2241 316.729 48.9113C315.478 48.5986 314.696 48.4422 314.383 48.4422C313.68 51.8828 312.937 55.2452 312.155 58.5294C311.373 61.8136 310.082 65.5279 308.284 69.6723C306.876 73.1129 305.234 76.3189 303.358 79.2903C301.559 82.2618 299.8 84.6467 298.079 86.4452C296.359 88.2437 294.913 89.143 293.74 89.143ZM312.507 45.979C312.898 45.4316 313.328 44.4933 313.797 43.164C314.266 41.8346 314.657 40.3489 314.97 38.7068C315.283 36.9865 315.439 35.3835 315.439 33.8978C315.439 32.5685 315.243 31.4346 314.852 30.4963C314.461 29.5579 313.797 29.0888 312.858 29.0888C312.389 29.0888 312.037 29.1279 311.803 29.2061C310.317 29.6752 309.261 30.4963 308.636 31.6692C308.089 32.764 307.815 34.0151 307.815 35.4226C307.815 37.5339 308.323 39.6452 309.34 41.7564C310.356 43.8677 311.412 45.2752 312.507 45.979Z" fill="black"/>
</g>
<defs>
<filter id="filter0_d_2_13" x="0.945723" y="0" width="346.71" height="158.502" filterUnits="userSpaceOnUse" color-interpolation-filters="sRGB">
<feFlood flood-opacity="0" result="BackgroundImageFix"/>
<feColorMatrix in="SourceAlpha" type="matrix" values="0 0 0 0 0 0 0 0 0 0 0 0 0 0 0 0 0 0 127 0" result="hardAlpha"/>
<feOffset dy="4.88722"/>
<feGaussianBlur stdDeviation="2.44361"/>
<feComposite in2="hardAlpha" operator="out"/>
<feColorMatrix type="matrix" values="0 0 0 0 0 0 0 0 0 0 0 0 0 0 0 0 0 0 0.6 0"/>
<feBlend mode="normal" in2="BackgroundImageFix" result="effect1_dropShadow_2_13"/>
<feBlend mode="normal" in="SourceGraphic" in2="effect1_dropShadow_2_13" result="shape"/>
</filter>
</defs>
</svg>
